<?xml version="1.0" encoding="utf-8"?>
<!-- Generator: Adobe Illustrator 17.0.0, SVG Export Plug-In . SVG Version: 6.00 Build 0)  -->
<!DOCTYPE svg PUBLIC "-//W3C//DTD SVG 1.1//EN" "http://www.w3.org/Graphics/SVG/1.1/DTD/svg11.dtd">
<svg version="1.1" id="Layer_1" xmlns="http://www.w3.org/2000/svg" xmlns:xlink="http://www.w3.org/1999/xlink" x="0px" y="0px"
	 width="293.006px" height="79.551px" viewBox="0 0 293.006 79.551" enable-background="new 0 0 293.006 79.551"
	 xml:space="preserve">
<g>
	<g>
		<g>
			<g>
				<path fill="#FFFFFF" d="M175.702,48.578c-2.014-1.892-4.655-2.85-7.849-2.85c-3.195,0-5.836,0.959-7.848,2.85
					c-2.021,1.896-3.044,4.413-3.044,7.479c0,3.066,1.024,5.583,3.044,7.48c2.014,1.891,4.655,2.851,7.849,2.851
					c3.193,0,5.834-0.959,7.85-2.851c2.02-1.898,3.043-4.415,3.043-7.48C178.746,52.992,177.722,50.476,175.702,48.578
					L175.702,48.578z M175.927,56.058c0,2.644-0.75,4.802-2.23,6.413c-1.472,1.603-3.443,2.416-5.857,2.416
					c-2.415,0-4.385-0.813-5.857-2.416c-1.48-1.611-2.23-3.768-2.23-6.413c0-2.644,0.75-4.801,2.23-6.413
					c1.471-1.603,3.442-2.415,5.857-2.415c2.414,0,4.385,0.813,5.857,2.415C175.177,51.257,175.927,53.414,175.927,56.058z"/>
			</g>
			<g>
				<path fill="#FFFFFF" d="M148.564,44.812c-1.736-0.92-3.763-1.42-6.028-1.485c-1.651-0.034-2.445-0.059-2.971-0.076
					c-0.413-0.013-0.626-0.019-0.969-0.019c-3.658,0-6.255,0.349-7.717,1.038c-1.504,0.707-2.589,2.01-3.225,3.874l-0.107,0.315
					l0.929,0.338l0.142-0.253c0.298-0.539,0.594-0.994,0.878-1.351c0.273-0.339,0.683-0.703,1.218-1.08
					c1.028-0.712,2.837-1.104,5.369-1.165h6.446c1.689,0,3.199,0.406,4.488,1.206c1.289,0.798,2.304,1.941,3.017,3.396
					c0.717,1.466,1.081,3.187,1.081,5.115c0,2.917-0.801,5.294-2.381,7.065c-1.57,1.759-3.658,2.651-6.205,2.651h-5.851V46.455
					h-2.721l0.003,17.062c-0.052,0.418-0.238,0.776-0.552,1.065c-0.311,0.285-0.689,0.429-1.122,0.429h-0.685l-0.098,0.993h11.027
					c3.428,0,6.251-1.052,8.391-3.127c2.144-2.079,3.23-4.841,3.23-8.21c0-2.228-0.496-4.215-1.476-5.905
					C151.693,47.069,150.31,45.74,148.564,44.812z"/>
			</g>
			<g>
				<path fill="#FFFFFF" d="M194.62,47.065h0.861c0.363,0,0.681,0.13,0.944,0.385c0.267,0.259,0.404,0.573,0.419,0.95v12.755
					l-14.372-15.348l-0.101-0.106h-0.805l0.103,0.827c0.126,0.863,0.189,1.853,0.189,2.943v14.245c0,0.389-0.124,0.691-0.392,0.951
					c-0.269,0.262-0.569,0.384-0.944,0.384h-0.86v0.953h6.333V65.05h-0.861c-0.375,0-0.675-0.122-0.944-0.385
					c-0.267-0.259-0.391-0.552-0.391-0.922v-12.81l14.373,15.348l0.1,0.106h0.772l-0.098-0.878
					c-0.125-0.931-0.189-1.932-0.189-2.975V48.386c0.015-0.376,0.148-0.673,0.419-0.937c0.263-0.255,0.58-0.385,0.943-0.385h0.834
					v-0.953h-6.333V47.065z"/>
			</g>
			<g>
				<path fill="#FFFFFF" d="M255.01,70.468l-0.366,0.073c-0.399,0.079-0.858,0.119-1.364,0.119c-0.492,0-1.136-0.141-1.913-0.42
					c-0.767-0.276-1.52-0.764-2.236-1.45c-0.729-0.698-1.552-1.766-2.447-3.174c-0.893-1.404-1.785-2.539-2.653-4.935l-3.834-10.873
					c-0.779-2.21-1.434-3.765-1.949-4.623c-0.774-1.247-1.493-2.105-2.136-2.55c-1.165-0.812-2.319-1.224-3.431-1.224
					c-1.297,0-2.663,0.294-4.058,0.875l-0.283,0.117l0.285,0.954l0.339-0.125c2.546-0.931,4.595-0.404,6.128,1.674l-7.708,18.467
					c-0.284,0.55-0.646,0.966-1.073,1.235c-0.425,0.268-0.861,0.404-1.296,0.404h-0.622v0.993h6.995v-0.993h-0.59
					c-0.359,0-0.598-0.093-0.753-0.294c-0.172-0.22-0.259-0.419-0.259-0.592c0-0.206,0.044-0.417,0.134-0.631l6.374-16.417
					c0.301,0.689,0.626,1.542,0.971,2.544l2.331,6.874h-4.966l-0.624,1.621h6.134l1.146,3.352c1.269,3.762,2.839,5.814,4.664,7.659
					c0.861,0.905,1.801,1.62,2.794,2.127c1.007,0.515,2.031,0.776,3.045,0.776c0.995,0,2.024-0.175,3.062-0.521l0.257-0.086
					L255.01,70.468z"/>
			</g>
			<g>
				<path fill="#FFFFFF" d="M216.086,57.083h0.779c0.354,0,0.627,0.079,0.809,0.234c0.171,0.147,0.251,0.357,0.251,0.662v4.708
					c-0.745,0.67-1.618,1.205-2.598,1.591c-1.025,0.403-2.124,0.607-3.263,0.607c-2.211-0.017-4.023-0.832-5.385-2.42
					c-1.375-1.603-2.073-3.759-2.073-6.408c0-2.649,0.698-4.809,2.074-6.422c1.361-1.597,3.172-2.406,5.381-2.406
					c1.732,0,3.195,0.409,4.348,1.215c1.143,0.799,1.914,1.957,2.294,3.441l0.064,0.256h0.902l-0.626-4.41l-0.13-0.084
					c-1.968-1.275-4.274-1.921-6.854-1.921c-3.008,0-5.486,0.962-7.364,2.86c-1.877,1.895-2.829,4.408-2.829,7.47
					c0,3.062,0.952,5.572,2.83,7.458c1.876,1.887,4.353,2.853,7.363,2.872c1.329,0,2.581-0.195,3.718-0.581
					c1.134-0.384,2.057-0.839,2.743-1.353c0.679-0.508,1.274-1.094,1.792-1.77l0.047-0.061l-0.001-4.659
					c-0.013-0.301,0.055-0.508,0.215-0.65c0.173-0.153,0.448-0.23,0.818-0.23h0.751V56.13h-6.058V57.083z"/>
			</g>
			<g>
				<polygon fill="#FFFFFF" points="165.313,44.242 164.57,44.242 167.265,40.593 168.442,40.593 171.136,44.242 170.394,44.242 
					167.88,41.929 				"/>
				<path fill="#FFFFFF" d="M171.404,44.377h-1.063l-2.462-2.265l-2.514,2.265h-1.062l2.894-3.919h1.314l0.04,0.055L171.404,44.377z
					 M170.446,44.107h0.422l-2.495-3.379h-1.041l-2.495,3.379h0.423l2.62-2.36L170.446,44.107z"/>
			</g>
			<g>
				<polygon fill="#FFFFFF" points="243.235,38.138 241.767,39.475 239.2,41.787 238.458,41.787 241.152,38.138 242.329,38.138 				
					"/>
				<path fill="#FFFFFF" d="M239.252,41.922h-1.062l2.894-3.919h2.5l-1.725,1.572L239.252,41.922z M238.725,41.652h0.423
					l3.738-3.379h-1.666L238.725,41.652z"/>
			</g>
			<g>
				<polygon fill="#FFFFFF" points="139.742,56.063 129.892,56.063 130.71,54.416 140.56,54.416 				"/>
			</g>
		</g>
		<g>
			<path fill="#FFFFFF" d="M92.114,30.08V17.158h4.884c1.085,0,1.946,0.197,2.581,0.592c0.783,0.493,1.175,1.258,1.175,2.294
				c0,0.845-0.311,1.545-0.934,2.1c-0.555,0.493-1.28,0.802-2.174,0.925v0.157c0.906,0.099,1.643,0.342,2.211,0.731
				c0.795,0.561,1.193,1.366,1.193,2.414c0,1.221-0.478,2.168-1.434,2.84c-0.833,0.58-1.881,0.869-3.145,0.869H92.114z
				 M94.953,18.259v4.468l0.49,0.037c0.333,0,0.635-0.034,0.906-0.102c0.271-0.068,0.527-0.197,0.768-0.389
				c0.29-0.241,0.501-0.53,0.634-0.87c0.133-0.339,0.199-0.706,0.199-1.101c0-0.666-0.18-1.186-0.541-1.559
				c-0.361-0.373-0.865-0.56-1.512-0.56c-0.136,0-0.294,0.009-0.476,0.028C95.239,18.231,95.083,18.246,94.953,18.259z
				 M94.953,23.827v5.152h0.943c0.561,0,1.061-0.213,1.499-0.638c0.493-0.481,0.74-1.101,0.74-1.859c0-0.925-0.227-1.599-0.68-2.021
				c-0.453-0.422-1.124-0.634-2.012-0.634H94.953z"/>
			<path fill="#FFFFFF" d="M103.824,17.158h8.714c-0.025,0.142-0.049,0.307-0.074,0.495c-0.025,0.188-0.037,0.301-0.037,0.338
				c0.037,0.265,0.074,0.53,0.111,0.795c-0.648-0.062-1.454-0.12-2.419-0.176c-0.965-0.056-1.888-0.083-2.77-0.083h-0.685v4.089
				h3.034c0.592,0,1.039-0.009,1.341-0.028c0.302-0.019,0.777-0.071,1.425-0.157c-0.055,0.278-0.108,0.555-0.157,0.833
				c0,0.099,0.015,0.224,0.046,0.375c0.031,0.151,0.068,0.291,0.111,0.421c-0.333-0.025-0.789-0.057-1.369-0.097
				c-0.58-0.04-1.045-0.06-1.397-0.06h-3.034v4.819c1.098,0,2.174-0.026,3.228-0.079c1.054-0.052,1.936-0.116,2.646-0.19
				c-0.037,0.265-0.074,0.53-0.111,0.795c0,0.111,0.012,0.242,0.037,0.393c0.025,0.151,0.049,0.298,0.074,0.439h-8.714V17.158z
				 M107.275,12.801h1.776l2.313,3.339h-1.064l-2.118-1.896l-2.164,1.896h-1.018L107.275,12.801z M106.609,32.661
				c0-0.407,0.145-0.755,0.435-1.045c0.29-0.29,0.638-0.435,1.045-0.435c0.401,0,0.752,0.145,1.054,0.435
				c0.302,0.29,0.453,0.638,0.453,1.045c0,0.413-0.148,0.768-0.444,1.064c-0.296,0.296-0.651,0.444-1.064,0.444
				c-0.407,0-0.755-0.151-1.045-0.453C106.753,33.414,106.609,33.062,106.609,32.661z"/>
			<path fill="#FFFFFF" d="M115.683,30.154V17.158h1.896c2.726,2.954,5.454,5.911,8.186,8.871v-8.871
				c0.185,0.025,0.316,0.043,0.393,0.056c0.077,0.012,0.196,0.019,0.356,0.019l0.759-0.074v13.034l-1.628-0.037
				c-1.073-1.196-2.14-2.396-3.201-3.598c-0.907-1.011-1.961-2.162-3.164-3.45l-2.081-2.155v9.204
				c-0.191-0.025-0.324-0.043-0.398-0.056c-0.074-0.012-0.194-0.018-0.361-0.018L115.683,30.154z"/>
			<path fill="#FFFFFF" d="M130.687,30.191V17.158c0.166,0,0.407,0.02,0.721,0.06c0.314,0.04,0.555,0.06,0.721,0.06
				c0.148,0,0.381-0.02,0.698-0.06c0.318-0.04,0.55-0.06,0.698-0.06v5.152c0.345,0,0.906,0.014,1.683,0.042
				c0.777,0.028,1.19,0.042,1.24,0.042c0.314,0,0.86-0.014,1.637-0.042c0.777-0.028,1.19-0.042,1.24-0.042v-5.152
				c0.167,0,0.407,0.02,0.722,0.06c0.314,0.04,0.555,0.06,0.721,0.06c0.148,0,0.381-0.02,0.698-0.06
				c0.318-0.04,0.55-0.06,0.698-0.06v13.034c-0.148,0-0.381-0.018-0.698-0.056s-0.55-0.056-0.698-0.056
				c-0.167,0-0.407,0.018-0.721,0.056s-0.555,0.056-0.722,0.056v-6.364c-0.314,0-0.794-0.019-1.438-0.056
				c-0.644-0.037-1.124-0.056-1.438-0.056c-0.333,0-0.82,0.018-1.462,0.056c-0.641,0.037-1.128,0.056-1.461,0.056v6.364
				c-0.148,0-0.381-0.018-0.698-0.056c-0.318-0.037-0.55-0.056-0.698-0.056c-0.167,0-0.407,0.018-0.721,0.056
				S130.853,30.191,130.687,30.191z"/>
			<path fill="#FFFFFF" d="M156.532,30.191c-0.265-0.037-0.53-0.074-0.796-0.111c-0.13,0-0.27,0.012-0.421,0.037
				c-0.151,0.025-0.288,0.049-0.412,0.074c-0.419-1.159-0.957-2.601-1.614-4.325c-0.657-1.724-1.226-3.187-1.707-4.389
				c-0.376-0.956-0.962-2.396-1.757-4.32c0.277,0,0.536,0.012,0.777,0.037c0.241,0.025,0.536,0.052,0.888,0.083
				c0.191,0,0.476-0.02,0.856-0.06c0.379-0.04,0.649-0.06,0.809-0.06c0.395,1.289,0.931,2.855,1.609,4.699
				c0.586,1.566,1.175,3.133,1.767,4.699c0.641-1.554,1.266-3.133,1.873-4.736c0.607-1.603,1.158-3.157,1.651-4.662l0.87,0.074
				c0.154,0,0.316-0.009,0.486-0.028c0.17-0.018,0.298-0.034,0.384-0.046c-0.604,1.443-1.209,2.877-1.813,4.301
				c-0.734,1.745-1.329,3.185-1.785,4.32C157.605,27.259,157.05,28.73,156.532,30.191z"/>
			<path fill="#FFFFFF" d="M163.95,30.191V17.158c0.154,0,0.389,0.02,0.703,0.06c0.314,0.04,0.549,0.06,0.703,0.06
				c0.167,0,0.407-0.02,0.722-0.06c0.314-0.04,0.555-0.06,0.721-0.06v13.034c-0.167,0-0.407-0.018-0.721-0.056
				s-0.555-0.056-0.722-0.056c-0.154,0-0.388,0.018-0.703,0.056S164.104,30.191,163.95,30.191z"/>
			<path fill="#FFFFFF" d="M170.166,17.158h8.714c-0.025,0.142-0.049,0.307-0.074,0.495c-0.025,0.188-0.037,0.301-0.037,0.338
				c0.037,0.265,0.074,0.53,0.111,0.795c-0.647-0.062-1.454-0.12-2.419-0.176c-0.965-0.056-1.889-0.083-2.77-0.083h-0.685v4.089
				h3.034c0.592,0,1.039-0.009,1.341-0.028c0.302-0.019,0.777-0.071,1.424-0.157c-0.055,0.278-0.108,0.555-0.157,0.833
				c0,0.099,0.015,0.224,0.046,0.375c0.031,0.151,0.068,0.291,0.111,0.421c-0.333-0.025-0.789-0.057-1.369-0.097
				s-1.045-0.06-1.397-0.06h-3.034v4.819c1.098,0,2.174-0.026,3.228-0.079c1.054-0.052,1.936-0.116,2.645-0.19
				c-0.037,0.265-0.074,0.53-0.111,0.795c0,0.111,0.012,0.242,0.037,0.393s0.049,0.298,0.074,0.439h-8.714V17.158z M173.617,12.801
				h1.776l2.313,3.339h-1.064l-2.118-1.896l-2.165,1.896h-1.018L173.617,12.801z M172.951,32.661c0-0.407,0.145-0.755,0.435-1.045
				c0.29-0.29,0.638-0.435,1.045-0.435c0.401,0,0.752,0.145,1.055,0.435c0.302,0.29,0.453,0.638,0.453,1.045
				c0,0.413-0.148,0.768-0.444,1.064c-0.296,0.296-0.65,0.444-1.064,0.444c-0.407,0-0.755-0.151-1.045-0.453
				C173.096,33.414,172.951,33.062,172.951,32.661z"/>
			<path fill="#FFFFFF" d="M182.025,30.154V17.158h1.896c2.726,2.954,5.455,5.911,8.186,8.871v-8.871
				c0.185,0.025,0.316,0.043,0.393,0.056c0.077,0.012,0.196,0.019,0.356,0.019l0.759-0.074v13.034l-1.628-0.037
				c-1.073-1.196-2.14-2.396-3.201-3.598c-0.906-1.011-1.961-2.162-3.163-3.45l-2.081-2.155v9.204
				c-0.191-0.025-0.324-0.043-0.398-0.056c-0.074-0.012-0.194-0.018-0.361-0.018L182.025,30.154z"/>
			<path fill="#FFFFFF" d="M207.602,18.527v11.664c-0.148,0-0.381-0.018-0.698-0.056s-0.55-0.056-0.698-0.056
				c-0.166,0-0.407,0.018-0.721,0.056c-0.315,0.037-0.555,0.056-0.722,0.056V18.527c-0.635,0-1.249,0.022-1.841,0.065
				c-0.592,0.043-1.153,0.108-1.684,0.194c0.025-0.16,0.049-0.327,0.074-0.5c0.025-0.173,0.037-0.284,0.037-0.333
				c0-0.111-0.012-0.236-0.037-0.375c-0.025-0.139-0.049-0.279-0.074-0.421h9.777c-0.037,0.265-0.077,0.53-0.12,0.795
				c0,0.13,0.014,0.27,0.042,0.421c0.028,0.151,0.054,0.288,0.079,0.412c-0.647-0.086-1.243-0.151-1.785-0.194
				C208.687,18.549,208.144,18.527,207.602,18.527z"/>
			<path fill="#FFFFFF" d="M213.207,30.191V17.158c0.167,0,0.407,0.02,0.721,0.06c0.314,0.04,0.555,0.06,0.721,0.06
				c0.148,0,0.381-0.02,0.698-0.06c0.318-0.04,0.55-0.06,0.698-0.06v5.152c0.345,0,0.907,0.014,1.684,0.042
				c0.777,0.028,1.19,0.042,1.24,0.042c0.314,0,0.86-0.014,1.637-0.042c0.777-0.028,1.19-0.042,1.239-0.042v-5.152
				c0.167,0,0.407,0.02,0.722,0.06c0.314,0.04,0.555,0.06,0.721,0.06c0.148,0,0.381-0.02,0.698-0.06
				c0.318-0.04,0.55-0.06,0.698-0.06v13.034c-0.148,0-0.381-0.018-0.698-0.056c-0.318-0.037-0.55-0.056-0.698-0.056
				c-0.166,0-0.407,0.018-0.721,0.056c-0.315,0.037-0.555,0.056-0.722,0.056v-6.364c-0.314,0-0.794-0.019-1.438-0.056
				c-0.644-0.037-1.124-0.056-1.438-0.056c-0.333,0-0.82,0.018-1.462,0.056c-0.641,0.037-1.128,0.056-1.462,0.056v6.364
				c-0.148,0-0.381-0.018-0.698-0.056s-0.55-0.056-0.698-0.056c-0.166,0-0.407,0.018-0.721,0.056S213.374,30.191,213.207,30.191z"/>
			<path fill="#FFFFFF" d="M234.353,26.214h-4.431c-0.253,0.722-0.432,1.233-0.536,1.535c-0.364,1.048-0.629,1.85-0.796,2.405
				c-0.111-0.012-0.239-0.028-0.384-0.046c-0.145-0.019-0.307-0.028-0.486-0.028c-0.154,0-0.319,0.009-0.495,0.028
				c-0.176,0.018-0.313,0.034-0.412,0.046l5.411-13.144c0.117,0.025,0.236,0.037,0.356,0.037c0.12,0,0.242,0,0.365,0h0.268
				c0.062,0,0.129,0,0.203,0c0.117-0.025,0.2-0.037,0.25-0.037l5.263,13.181c-0.253,0-0.447-0.006-0.583-0.018
				c-0.672-0.062-1.021-0.093-1.045-0.093c-0.253,0-0.447,0.006-0.583,0.018c-0.672,0.062-1.021,0.093-1.045,0.093
				C235.232,28.65,234.791,27.324,234.353,26.214z M231.967,12.801h1.776l2.313,3.339h-1.064l-2.118-1.896l-2.165,1.896h-1.018
				L231.967,12.801z M230.45,25.039h3.45l-1.674-4.394L230.45,25.039z M238.174,10.489l0.018,0.167l-0.018,0.398
				c0,0.253-0.182,0.549-0.546,0.888c-0.265,0.253-0.595,0.493-0.99,0.721c-0.24,0.117-0.41,0.244-0.509,0.379
				c-0.086,0.167-0.142,0.274-0.167,0.324l-0.083,0.324v0.259h-0.472V13.18c0-0.179,0.29-0.623,0.87-1.332
				c0.284-0.339,0.426-0.694,0.426-1.064c0-0.148-0.051-0.336-0.153-0.564c-0.102-0.228-0.223-0.379-0.365-0.453
				c-0.148-0.117-0.376-0.176-0.685-0.176c-0.049,0-0.14,0.054-0.273,0.162c-0.133,0.108-0.217,0.18-0.254,0.217
				c0.154,0.117,0.265,0.22,0.333,0.31c0.068,0.089,0.102,0.202,0.102,0.338c0,0.228-0.097,0.427-0.291,0.597
				c-0.194,0.17-0.412,0.254-0.652,0.254c-0.228,0-0.418-0.082-0.569-0.245c-0.151-0.163-0.227-0.365-0.227-0.606l0.037-0.203
				c0.154-0.321,0.37-0.589,0.647-0.805c0.426-0.327,0.962-0.49,1.609-0.49c0.691,0,1.24,0.163,1.647,0.49
				C237.887,9.838,238.075,10.131,238.174,10.489z"/>
			<path fill="#FFFFFF" d="M247.803,26.066c0.463-0.925,0.934-1.847,1.415-2.766c0.721-1.406,1.221-2.393,1.499-2.96
				c0.493-0.993,0.987-2.054,1.48-3.182c0.265,0.037,0.53,0.077,0.796,0.12c0.111,0,0.242-0.014,0.393-0.042
				c0.151-0.028,0.298-0.054,0.439-0.079c0.179,1.603,0.365,3.258,0.56,4.963c0.194,1.705,0.367,3.13,0.518,4.274
				c0.151,1.144,0.347,2.41,0.587,3.797c-0.253,0-0.499-0.012-0.74-0.037c-0.241-0.025-0.524-0.049-0.851-0.074
				c-0.179,0-0.432,0.018-0.759,0.056c-0.327,0.037-0.58,0.056-0.758,0.056c0-1.233-0.094-2.653-0.282-4.26
				c-0.188-1.606-0.372-3.14-0.55-4.602c-0.469,0.956-0.941,1.921-1.415,2.895c-0.382,0.783-0.851,1.758-1.406,2.923
				c-0.592,1.258-1.054,2.235-1.388,2.932l-0.416-0.037l-0.296,0.037c-0.61-1.301-1.272-2.681-1.984-4.139
				c-0.712-1.458-1.429-2.922-2.151-4.389c-0.123,0.913-0.251,1.933-0.384,3.062c-0.133,1.129-0.234,2.148-0.305,3.057
				c-0.071,0.91-0.106,1.75-0.106,2.521c-0.302-0.037-0.604-0.074-0.907-0.111c-0.129,0-0.273,0.012-0.43,0.037
				c-0.157,0.025-0.304,0.049-0.439,0.074c0.24-1.313,0.459-2.646,0.657-3.996c0.117-0.759,0.321-2.166,0.611-4.223
				c0.29-2.057,0.512-3.662,0.666-4.815c0.265,0.037,0.53,0.077,0.796,0.12c0.265-0.043,0.53-0.083,0.795-0.12
				c0.555,1.227,1.015,2.22,1.378,2.979c0.419,0.882,0.906,1.872,1.462,2.969C246.792,24.093,247.297,25.079,247.803,26.066z"/>
			<path fill="#FFFFFF" d="M270.235,26.066c0.462-0.925,0.934-1.847,1.415-2.766c0.721-1.406,1.221-2.393,1.499-2.96
				c0.493-0.993,0.987-2.054,1.48-3.182c0.265,0.037,0.53,0.077,0.796,0.12c0.111,0,0.242-0.014,0.393-0.042
				c0.151-0.028,0.297-0.054,0.439-0.079c0.179,1.603,0.365,3.258,0.56,4.963c0.194,1.705,0.367,3.13,0.518,4.274
				c0.151,1.144,0.347,2.41,0.587,3.797c-0.253,0-0.5-0.012-0.74-0.037c-0.241-0.025-0.524-0.049-0.851-0.074
				c-0.179,0-0.432,0.018-0.759,0.056c-0.327,0.037-0.58,0.056-0.759,0.056c0-1.233-0.094-2.653-0.282-4.26
				c-0.188-1.606-0.372-3.14-0.55-4.602c-0.469,0.956-0.94,1.921-1.415,2.895c-0.382,0.783-0.851,1.758-1.406,2.923
				c-0.592,1.258-1.055,2.235-1.388,2.932l-0.416-0.037l-0.296,0.037c-0.61-1.301-1.272-2.681-1.984-4.139
				c-0.712-1.458-1.429-2.922-2.151-4.389c-0.123,0.913-0.251,1.933-0.384,3.062c-0.133,1.129-0.234,2.148-0.305,3.057
				c-0.071,0.91-0.106,1.75-0.106,2.521c-0.302-0.037-0.604-0.074-0.907-0.111c-0.129,0-0.273,0.012-0.43,0.037
				c-0.157,0.025-0.304,0.049-0.439,0.074c0.24-1.313,0.459-2.646,0.657-3.996c0.117-0.759,0.321-2.166,0.611-4.223
				c0.29-2.057,0.512-3.662,0.666-4.815c0.265,0.037,0.53,0.077,0.796,0.12c0.265-0.043,0.53-0.083,0.796-0.12
				c0.555,1.227,1.014,2.22,1.378,2.979c0.419,0.882,0.907,1.872,1.462,2.969C269.223,24.093,269.729,25.079,270.235,26.066z"/>
			<path fill="#FFFFFF" d="M286.33,24.318v5.874c-0.16,0-0.399-0.018-0.717-0.056s-0.557-0.056-0.717-0.056
				c-0.154,0-0.388,0.018-0.703,0.056c-0.314,0.037-0.549,0.056-0.703,0.056v-5.495c-0.277-0.438-0.777-1.264-1.499-2.479
				c-0.592-0.999-1.088-1.838-1.489-2.516c-0.493-0.851-0.987-1.699-1.48-2.544c0.302,0,0.583,0.012,0.842,0.037
				c0.259,0.025,0.57,0.052,0.934,0.083c0.203,0,0.507-0.02,0.911-0.06c0.404-0.04,0.708-0.06,0.911-0.06
				c0.518,0.974,1.085,2.1,1.702,3.376c0.321,0.629,0.567,1.107,0.74,1.434c0.228,0.432,0.398,0.712,0.509,0.842
				c0.382-0.444,1.014-1.563,1.896-3.358c0.432-0.87,0.799-1.634,1.101-2.294c0.167,0.025,0.322,0.043,0.467,0.056
				c0.145,0.012,0.319,0.019,0.523,0.019c0.16,0,0.336-0.009,0.527-0.028c0.191-0.018,0.342-0.034,0.453-0.046
				c-0.456,0.759-0.937,1.554-1.443,2.387c-0.654,1.085-1.132,1.881-1.434,2.386C287.132,22.844,286.688,23.639,286.33,24.318z
				 M287.81,13.18h0.675c-0.136,0.709-0.336,1.252-0.601,1.628c-0.351,0.506-0.82,0.759-1.406,0.759
				c-0.241,0-0.459-0.037-0.657-0.111c-0.056-0.025-0.247-0.119-0.574-0.282c-0.327-0.163-0.567-0.279-0.721-0.347
				c-0.302-0.136-0.533-0.203-0.694-0.203c-0.253,0-0.442,0.106-0.569,0.319c-0.126,0.213-0.19,0.409-0.19,0.587h-0.685
				c0-0.654,0.228-1.233,0.685-1.739c0.364-0.407,0.805-0.611,1.323-0.611c0.29,0,0.62,0.083,0.99,0.25
				c0.265,0.136,0.453,0.231,0.564,0.287c0.191,0.111,0.368,0.2,0.532,0.268c0.163,0.068,0.313,0.102,0.449,0.102
				c0.216,0,0.401-0.093,0.555-0.278C287.573,13.692,287.68,13.483,287.81,13.18z"/>
		</g>
	</g>
	<g>
		<path fill="#E0BD6D" d="M69.184,35.917L51.316,59.59l-2.433-14.712L43.149,9.617l-5.734,35.261L34.982,59.59L17.113,35.917
			l8.546,25.861L7.631,47.666L31.68,79.551h0.157c0,0,1.223-5.77,6.625-13.662c1.509-2.205,6.404-8.69,4.535-11.583
			c0,0-1.214-1.835-4.855-0.747c0,0,0.593-1.317,1.537-1.521c0,0,0.271-3.008,3.548-3.008c0,0,5.797,0.177,2.939,7.179
			c-2.34,5.733-9.507,21.27,8.294,23.343h0.157l24.05-31.886L60.639,61.778L69.184,35.917z"/>
		<path fill="#E0BD6D" d="M43.15,7.856c0-1.096,0.838-2.099,1.357-2.623c0.405-0.408,0.706-0.932,0.706-1.555
			c0-1.148-0.924-2.08-2.063-2.08c-1.14,0-2.064,0.931-2.064,2.08c0,0.622,0.301,1.147,0.706,1.555
			C42.312,5.757,43.15,6.76,43.15,7.856"/>
		<path fill="#E0BD6D" d="M26.667,19.818c0.665,0.313,1.793,0.967,2.166,1.996c-0.372-1.03,0.076-2.262,0.385-2.932
			c0.242-0.523,0.347-1.12,0.136-1.705c-0.39-1.079-1.574-1.635-2.645-1.243c-1.071,0.393-1.623,1.586-1.233,2.666
			C25.687,19.185,26.148,19.574,26.667,19.818"/>
		<polygon fill="#E0BD6D" points="57.655,48.534 56.83,23.36 50.191,43.416 52.254,55.889 		"/>
		<path fill="#E0BD6D" d="M72.39,32.642c0.553-0.149,1.074-0.452,1.383-0.991c0.57-0.995,0.232-2.267-0.756-2.841
			c-0.987-0.574-2.249-0.233-2.819,0.761c-0.308,0.539-0.308,1.145-0.16,1.703c0.19,0.714,0.418,2.006-0.125,2.955
			C70.457,33.281,71.681,32.834,72.39,32.642"/>
		<path fill="#E0BD6D" d="M57.465,21.815c0.372-1.03,1.501-1.684,2.166-1.996c0.518-0.244,0.98-0.634,1.191-1.218
			c0.389-1.08-0.162-2.273-1.233-2.666c-1.071-0.393-2.256,0.164-2.645,1.243c-0.212,0.584-0.106,1.182,0.136,1.705
			C57.389,19.553,57.836,20.785,57.465,21.815"/>
		<path fill="#E0BD6D" d="M84.422,41.744c-0.806-0.812-2.113-0.812-2.919,0c-0.436,0.44-0.592,1.026-0.592,1.603
			c0,0.74-0.111,2.047-0.88,2.822c0.769-0.775,2.066-0.887,2.8-0.887c0.572,0,1.154-0.157,1.59-0.597
			C85.228,43.873,85.228,42.556,84.422,41.744"/>
		<polygon fill="#E0BD6D" points="28.642,48.534 34.044,55.889 36.106,43.416 29.467,23.36 		"/>
		<path fill="#E0BD6D" d="M4.797,41.744c-0.806-0.812-2.113-0.812-2.918,0c-0.806,0.812-0.806,2.129,0,2.941
			c0.436,0.44,1.018,0.597,1.59,0.597c0.734,0,2.031,0.112,2.8,0.887c-0.769-0.775-0.88-2.082-0.88-2.822
			C5.388,42.77,5.233,42.184,4.797,41.744"/>
		<path fill="#E0BD6D" d="M13.84,32.642c0.709,0.192,1.933,0.638,2.477,1.587c-0.544-0.949-0.315-2.241-0.125-2.955
			c0.148-0.557,0.148-1.164-0.16-1.703c-0.57-0.994-1.832-1.335-2.819-0.761c-0.987,0.574-1.325,1.846-0.755,2.841
			C12.766,32.191,13.287,32.493,13.84,32.642"/>
	</g>
</g>
</svg>
